<?xml version="1.0" encoding="UTF-8"?>
<svg xmlns="http://www.w3.org/2000/svg" width="279.4mm" height="215.9mm" viewBox="0 0 279.4 215.9">
  <title>box_pla_aero — 279.4mm x 215.9mm — print at 100%</title>
  <rect x="0" y="0" width="100%" height="100%" fill="white"/>
  <g transform="translate(22,22)"><defs>
    <clipPath id="boxNozzleClip_BOX-20260526163901610943-E9BB54B2">
      <rect x="0.00" y="0.00" width="22.00" height="22.00" rx="2.00"/>
    </clipPath>
  </defs>
  <rect x="0.00" y="0.00" width="22.00" height="22.00" rx="2.00" fill="white" stroke="#222222" stroke-width="0.3"/>
  <rect x="0.00" y="0.00" width="22.00" height="22.00" rx="2.00" fill="#FFFFFF" stroke="none"/>
  <text x="1.00" y="8.54" font-family="Arial, Helvetica, sans-serif" font-size="2.50mm" dominant-baseline="alphabetic" font-weight="700" fill="#111111" textLength="20.00" lengthAdjust="spacingAndGlyphs" data-type-key="filament.pla_aero">PLA Aero</text>
  <text x="1.00" y="18.03" font-family="Arial, Helvetica, sans-serif" font-size="2.00mm" dominant-baseline="alphabetic" fill="#111111" textLength="20.00" lengthAdjust="spacingAndGlyphs" data-color-key="white">White</text>
  <!-- Box nozzle half-circle indicators (model-driven) -->
  <g clip-path="url(#boxNozzleClip_BOX-20260526163901610943-E9BB54B2)">
    <path d="M 0.05,22.00 A 2.72,2.72 0 0 1 5.49,22.00 Z" fill="#FF9800" stroke="#000000" stroke-width="0.25"/>
    <text x="2.77" y="21.13" text-anchor="middle" dominant-baseline="middle" font-family="Arial, Helvetica, sans-serif" font-size="0.68mm" fill="#000000">.2</text>
    <path d="M 5.54,22.00 A 2.72,2.72 0 0 1 10.98,22.00 Z" fill="#39FF14" stroke="#000000" stroke-width="0.25"/>
    <text x="8.26" y="21.13" text-anchor="middle" dominant-baseline="middle" font-family="Arial, Helvetica, sans-serif" font-size="0.68mm" fill="#C8C8C8">.4</text>
    <path d="M 11.03,22.00 A 2.72,2.72 0 0 1 16.46,22.00 Z" fill="#FF3B30" stroke="#000000" stroke-width="0.25"/>
    <text x="13.74" y="21.13" text-anchor="middle" dominant-baseline="middle" font-family="Arial, Helvetica, sans-serif" font-size="0.68mm" fill="#000000">.6</text>
    <path d="M 16.51,22.00 A 2.72,2.72 0 0 1 21.95,22.00 Z" fill="#FF3B30" stroke="#000000" stroke-width="0.25"/>
    <text x="19.23" y="21.13" text-anchor="middle" dominant-baseline="middle" font-family="Arial, Helvetica, sans-serif" font-size="0.68mm" fill="#000000">.8</text>
  </g>
  <rect x="0.00" y="0.00" width="22.00" height="22.00" rx="2.00" fill="none" stroke="#222222" stroke-width="0.3"/>
</g>
  <g transform="translate(48,22)"><defs>
    <clipPath id="boxNozzleClip_BOX-20260526163901610740-BFE7599C">
      <rect x="0.00" y="0.00" width="22.00" height="22.00" rx="2.00"/>
    </clipPath>
  </defs>
  <rect x="0.00" y="0.00" width="22.00" height="22.00" rx="2.00" fill="white" stroke="#222222" stroke-width="0.3"/>
  <rect x="0.00" y="0.00" width="22.00" height="22.00" rx="2.00" fill="#708090" stroke="none"/>
  <text x="1.00" y="8.54" font-family="Arial, Helvetica, sans-serif" font-size="2.50mm" dominant-baseline="alphabetic" font-weight="700" fill="#FFFFFF" textLength="20.00" lengthAdjust="spacingAndGlyphs" data-type-key="filament.pla_aero">PLA Aero</text>
  <text x="1.00" y="18.03" font-family="Arial, Helvetica, sans-serif" font-size="2.00mm" dominant-baseline="alphabetic" fill="#FFFFFF" textLength="20.00" lengthAdjust="spacingAndGlyphs" data-color-key="gray">Gray</text>
  <!-- Box nozzle half-circle indicators (model-driven) -->
  <g clip-path="url(#boxNozzleClip_BOX-20260526163901610740-BFE7599C)">
    <path d="M 0.05,22.00 A 2.72,2.72 0 0 1 5.49,22.00 Z" fill="#FF9800" stroke="#000000" stroke-width="0.25"/>
    <text x="2.77" y="21.13" text-anchor="middle" dominant-baseline="middle" font-family="Arial, Helvetica, sans-serif" font-size="0.68mm" fill="#000000">.2</text>
    <path d="M 5.54,22.00 A 2.72,2.72 0 0 1 10.98,22.00 Z" fill="#39FF14" stroke="#000000" stroke-width="0.25"/>
    <text x="8.26" y="21.13" text-anchor="middle" dominant-baseline="middle" font-family="Arial, Helvetica, sans-serif" font-size="0.68mm" fill="#C8C8C8">.4</text>
    <path d="M 11.03,22.00 A 2.72,2.72 0 0 1 16.46,22.00 Z" fill="#FF3B30" stroke="#000000" stroke-width="0.25"/>
    <text x="13.74" y="21.13" text-anchor="middle" dominant-baseline="middle" font-family="Arial, Helvetica, sans-serif" font-size="0.68mm" fill="#000000">.6</text>
    <path d="M 16.51,22.00 A 2.72,2.72 0 0 1 21.95,22.00 Z" fill="#FF3B30" stroke="#000000" stroke-width="0.25"/>
    <text x="19.23" y="21.13" text-anchor="middle" dominant-baseline="middle" font-family="Arial, Helvetica, sans-serif" font-size="0.68mm" fill="#000000">.8</text>
  </g>
  <rect x="0.00" y="0.00" width="22.00" height="22.00" rx="2.00" fill="none" stroke="#222222" stroke-width="0.3"/>
</g>
  <line x1="15.00" y1="12.00" x2="15.00" y2="18.00" stroke="black" stroke-width="0.3" class="alignment-mark"/>
  <line x1="12.00" y1="15.00" x2="18.00" y2="15.00" stroke="black" stroke-width="0.3" class="alignment-mark"/>
  <line x1="264.40" y1="12.00" x2="264.40" y2="18.00" stroke="black" stroke-width="0.3" class="alignment-mark"/>
  <line x1="261.40" y1="15.00" x2="267.40" y2="15.00" stroke="black" stroke-width="0.3" class="alignment-mark"/>
  <line x1="15.00" y1="197.90" x2="15.00" y2="203.90" stroke="black" stroke-width="0.3" class="alignment-mark"/>
  <line x1="12.00" y1="200.90" x2="18.00" y2="200.90" stroke="black" stroke-width="0.3" class="alignment-mark"/>
  <line x1="264.40" y1="197.90" x2="264.40" y2="203.90" stroke="black" stroke-width="0.3" class="alignment-mark"/>
  <line x1="261.40" y1="200.90" x2="267.40" y2="200.90" stroke="black" stroke-width="0.3" class="alignment-mark"/>
</svg>
