<?xml version="1.0" encoding="UTF-8"?>
<svg xmlns="http://www.w3.org/2000/svg" width="279.4mm" height="215.9mm" viewBox="0 0 279.4 215.9">
  <title>box_abs — 279.4mm x 215.9mm — print at 100%</title>
  <rect x="0" y="0" width="100%" height="100%" fill="white"/>
  <g transform="translate(22,22)"><defs>
    <clipPath id="boxNozzleClip_BOX-20260526163901601487-210BF775">
      <rect x="0.00" y="0.00" width="22.00" height="22.00" rx="2.00"/>
    </clipPath>
  </defs>
  <rect x="0.00" y="0.00" width="22.00" height="22.00" rx="2.00" fill="white" stroke="#222222" stroke-width="0.3"/>
  <rect x="0.00" y="0.00" width="22.00" height="22.00" rx="2.00" fill="#FFFFFF" stroke="none"/>
  <text x="1.00" y="8.54" font-family="Arial, Helvetica, sans-serif" font-size="2.50mm" dominant-baseline="alphabetic" font-weight="700" fill="#111111" textLength="20.00" lengthAdjust="spacingAndGlyphs" data-type-key="filament.abs">ABS</text>
  <text x="1.00" y="18.03" font-family="Arial, Helvetica, sans-serif" font-size="2.00mm" dominant-baseline="alphabetic" fill="#111111" textLength="20.00" lengthAdjust="spacingAndGlyphs" data-color-key="white">White</text>
  <!-- Box nozzle half-circle indicators (model-driven) -->
  <g clip-path="url(#boxNozzleClip_BOX-20260526163901601487-210BF775)">
    <path d="M 0.05,22.00 A 2.72,2.72 0 0 1 5.49,22.00 Z" fill="#FFE000" stroke="#000000" stroke-width="0.25"/>
    <text x="2.77" y="21.13" text-anchor="middle" dominant-baseline="middle" font-family="Arial, Helvetica, sans-serif" font-size="0.68mm" fill="#C8C8C8">.2</text>
    <path d="M 5.54,22.00 A 2.72,2.72 0 0 1 10.98,22.00 Z" fill="#39FF14" stroke="#000000" stroke-width="0.25"/>
    <text x="8.26" y="21.13" text-anchor="middle" dominant-baseline="middle" font-family="Arial, Helvetica, sans-serif" font-size="0.68mm" fill="#C8C8C8">.4</text>
    <path d="M 11.03,22.00 A 2.72,2.72 0 0 1 16.46,22.00 Z" fill="#39FF14" stroke="#000000" stroke-width="0.25"/>
    <text x="13.74" y="21.13" text-anchor="middle" dominant-baseline="middle" font-family="Arial, Helvetica, sans-serif" font-size="0.68mm" fill="#C8C8C8">.6</text>
    <path d="M 16.51,22.00 A 2.72,2.72 0 0 1 21.95,22.00 Z" fill="#39FF14" stroke="#000000" stroke-width="0.25"/>
    <text x="19.23" y="21.13" text-anchor="middle" dominant-baseline="middle" font-family="Arial, Helvetica, sans-serif" font-size="0.68mm" fill="#C8C8C8">.8</text>
  </g>
  <rect x="0.00" y="0.00" width="22.00" height="22.00" rx="2.00" fill="none" stroke="#222222" stroke-width="0.3"/>
</g>
  <g transform="translate(48,22)"><defs>
    <clipPath id="boxNozzleClip_BOX-20260526163901600298-6AFD68AE">
      <rect x="0.00" y="0.00" width="22.00" height="22.00" rx="2.00"/>
    </clipPath>
  </defs>
  <rect x="0.00" y="0.00" width="22.00" height="22.00" rx="2.00" fill="white" stroke="#222222" stroke-width="0.3"/>
  <rect x="0.00" y="0.00" width="22.00" height="22.00" rx="2.00" fill="#000000" stroke="none"/>
  <text x="1.00" y="8.54" font-family="Arial, Helvetica, sans-serif" font-size="2.50mm" dominant-baseline="alphabetic" font-weight="700" fill="#FFFFFF" textLength="20.00" lengthAdjust="spacingAndGlyphs" data-type-key="filament.abs">ABS</text>
  <text x="1.00" y="18.03" font-family="Arial, Helvetica, sans-serif" font-size="2.00mm" dominant-baseline="alphabetic" fill="#FFFFFF" textLength="20.00" lengthAdjust="spacingAndGlyphs" data-color-key="black">Black</text>
  <!-- Box nozzle half-circle indicators (model-driven) -->
  <g clip-path="url(#boxNozzleClip_BOX-20260526163901600298-6AFD68AE)">
    <path d="M 0.05,22.00 A 2.72,2.72 0 0 1 5.49,22.00 Z" fill="#FFE000" stroke="#000000" stroke-width="0.25"/>
    <text x="2.77" y="21.13" text-anchor="middle" dominant-baseline="middle" font-family="Arial, Helvetica, sans-serif" font-size="0.68mm" fill="#C8C8C8">.2</text>
    <path d="M 5.54,22.00 A 2.72,2.72 0 0 1 10.98,22.00 Z" fill="#39FF14" stroke="#000000" stroke-width="0.25"/>
    <text x="8.26" y="21.13" text-anchor="middle" dominant-baseline="middle" font-family="Arial, Helvetica, sans-serif" font-size="0.68mm" fill="#C8C8C8">.4</text>
    <path d="M 11.03,22.00 A 2.72,2.72 0 0 1 16.46,22.00 Z" fill="#39FF14" stroke="#000000" stroke-width="0.25"/>
    <text x="13.74" y="21.13" text-anchor="middle" dominant-baseline="middle" font-family="Arial, Helvetica, sans-serif" font-size="0.68mm" fill="#C8C8C8">.6</text>
    <path d="M 16.51,22.00 A 2.72,2.72 0 0 1 21.95,22.00 Z" fill="#39FF14" stroke="#000000" stroke-width="0.25"/>
    <text x="19.23" y="21.13" text-anchor="middle" dominant-baseline="middle" font-family="Arial, Helvetica, sans-serif" font-size="0.68mm" fill="#C8C8C8">.8</text>
  </g>
  <rect x="0.00" y="0.00" width="22.00" height="22.00" rx="2.00" fill="none" stroke="#222222" stroke-width="0.3"/>
</g>
  <g transform="translate(74,22)"><defs>
    <clipPath id="boxNozzleClip_BOX-20260526163901601172-38727380">
      <rect x="0.00" y="0.00" width="22.00" height="22.00" rx="2.00"/>
    </clipPath>
  </defs>
  <rect x="0.00" y="0.00" width="22.00" height="22.00" rx="2.00" fill="white" stroke="#222222" stroke-width="0.3"/>
  <rect x="0.00" y="0.00" width="22.00" height="22.00" rx="2.00" fill="#87909A" stroke="none"/>
  <text x="1.00" y="8.54" font-family="Arial, Helvetica, sans-serif" font-size="2.50mm" dominant-baseline="alphabetic" font-weight="700" fill="#111111" textLength="20.00" lengthAdjust="spacingAndGlyphs" data-type-key="filament.abs">ABS</text>
  <text x="1.00" y="18.03" font-family="Arial, Helvetica, sans-serif" font-size="2.00mm" dominant-baseline="alphabetic" fill="#111111" textLength="20.00" lengthAdjust="spacingAndGlyphs" data-color-key="silver">Silver</text>
  <!-- Box nozzle half-circle indicators (model-driven) -->
  <g clip-path="url(#boxNozzleClip_BOX-20260526163901601172-38727380)">
    <path d="M 0.05,22.00 A 2.72,2.72 0 0 1 5.49,22.00 Z" fill="#FFE000" stroke="#000000" stroke-width="0.25"/>
    <text x="2.77" y="21.13" text-anchor="middle" dominant-baseline="middle" font-family="Arial, Helvetica, sans-serif" font-size="0.68mm" fill="#C8C8C8">.2</text>
    <path d="M 5.54,22.00 A 2.72,2.72 0 0 1 10.98,22.00 Z" fill="#39FF14" stroke="#000000" stroke-width="0.25"/>
    <text x="8.26" y="21.13" text-anchor="middle" dominant-baseline="middle" font-family="Arial, Helvetica, sans-serif" font-size="0.68mm" fill="#C8C8C8">.4</text>
    <path d="M 11.03,22.00 A 2.72,2.72 0 0 1 16.46,22.00 Z" fill="#39FF14" stroke="#000000" stroke-width="0.25"/>
    <text x="13.74" y="21.13" text-anchor="middle" dominant-baseline="middle" font-family="Arial, Helvetica, sans-serif" font-size="0.68mm" fill="#C8C8C8">.6</text>
    <path d="M 16.51,22.00 A 2.72,2.72 0 0 1 21.95,22.00 Z" fill="#39FF14" stroke="#000000" stroke-width="0.25"/>
    <text x="19.23" y="21.13" text-anchor="middle" dominant-baseline="middle" font-family="Arial, Helvetica, sans-serif" font-size="0.68mm" fill="#C8C8C8">.8</text>
  </g>
  <rect x="0.00" y="0.00" width="22.00" height="22.00" rx="2.00" fill="none" stroke="#222222" stroke-width="0.3"/>
</g>
  <g transform="translate(100,22)"><defs>
    <clipPath id="boxNozzleClip_BOX-20260526163901601047-55E8FCE3">
      <rect x="0.00" y="0.00" width="22.00" height="22.00" rx="2.00"/>
    </clipPath>
  </defs>
  <rect x="0.00" y="0.00" width="22.00" height="22.00" rx="2.00" fill="white" stroke="#222222" stroke-width="0.3"/>
  <rect x="0.00" y="0.00" width="22.00" height="22.00" rx="2.00" fill="#D32941" stroke="none"/>
  <text x="1.00" y="8.54" font-family="Arial, Helvetica, sans-serif" font-size="2.50mm" dominant-baseline="alphabetic" font-weight="700" fill="#FFFFFF" textLength="20.00" lengthAdjust="spacingAndGlyphs" data-type-key="filament.abs">ABS</text>
  <text x="1.00" y="18.03" font-family="Arial, Helvetica, sans-serif" font-size="2.00mm" dominant-baseline="alphabetic" fill="#FFFFFF" textLength="20.00" lengthAdjust="spacingAndGlyphs" data-color-key="red">Red</text>
  <!-- Box nozzle half-circle indicators (model-driven) -->
  <g clip-path="url(#boxNozzleClip_BOX-20260526163901601047-55E8FCE3)">
    <path d="M 0.05,22.00 A 2.72,2.72 0 0 1 5.49,22.00 Z" fill="#FFE000" stroke="#000000" stroke-width="0.25"/>
    <text x="2.77" y="21.13" text-anchor="middle" dominant-baseline="middle" font-family="Arial, Helvetica, sans-serif" font-size="0.68mm" fill="#C8C8C8">.2</text>
    <path d="M 5.54,22.00 A 2.72,2.72 0 0 1 10.98,22.00 Z" fill="#39FF14" stroke="#000000" stroke-width="0.25"/>
    <text x="8.26" y="21.13" text-anchor="middle" dominant-baseline="middle" font-family="Arial, Helvetica, sans-serif" font-size="0.68mm" fill="#C8C8C8">.4</text>
    <path d="M 11.03,22.00 A 2.72,2.72 0 0 1 16.46,22.00 Z" fill="#39FF14" stroke="#000000" stroke-width="0.25"/>
    <text x="13.74" y="21.13" text-anchor="middle" dominant-baseline="middle" font-family="Arial, Helvetica, sans-serif" font-size="0.68mm" fill="#C8C8C8">.6</text>
    <path d="M 16.51,22.00 A 2.72,2.72 0 0 1 21.95,22.00 Z" fill="#39FF14" stroke="#000000" stroke-width="0.25"/>
    <text x="19.23" y="21.13" text-anchor="middle" dominant-baseline="middle" font-family="Arial, Helvetica, sans-serif" font-size="0.68mm" fill="#C8C8C8">.8</text>
  </g>
  <rect x="0.00" y="0.00" width="22.00" height="22.00" rx="2.00" fill="none" stroke="#222222" stroke-width="0.3"/>
</g>
  <g transform="translate(126,22)"><defs>
    <clipPath id="boxNozzleClip_BOX-20260526163901600922-EA8991B8">
      <rect x="0.00" y="0.00" width="22.00" height="22.00" rx="2.00"/>
    </clipPath>
  </defs>
  <rect x="0.00" y="0.00" width="22.00" height="22.00" rx="2.00" fill="white" stroke="#222222" stroke-width="0.3"/>
  <rect x="0.00" y="0.00" width="22.00" height="22.00" rx="2.00" fill="#FF6A13" stroke="none"/>
  <text x="1.00" y="8.54" font-family="Arial, Helvetica, sans-serif" font-size="2.50mm" dominant-baseline="alphabetic" font-weight="700" fill="#111111" textLength="20.00" lengthAdjust="spacingAndGlyphs" data-type-key="filament.abs">ABS</text>
  <text x="1.00" y="18.03" font-family="Arial, Helvetica, sans-serif" font-size="2.00mm" dominant-baseline="alphabetic" fill="#111111" textLength="20.00" lengthAdjust="spacingAndGlyphs" data-color-key="orange">Orange</text>
  <!-- Box nozzle half-circle indicators (model-driven) -->
  <g clip-path="url(#boxNozzleClip_BOX-20260526163901600922-EA8991B8)">
    <path d="M 0.05,22.00 A 2.72,2.72 0 0 1 5.49,22.00 Z" fill="#FFE000" stroke="#000000" stroke-width="0.25"/>
    <text x="2.77" y="21.13" text-anchor="middle" dominant-baseline="middle" font-family="Arial, Helvetica, sans-serif" font-size="0.68mm" fill="#C8C8C8">.2</text>
    <path d="M 5.54,22.00 A 2.72,2.72 0 0 1 10.98,22.00 Z" fill="#39FF14" stroke="#000000" stroke-width="0.25"/>
    <text x="8.26" y="21.13" text-anchor="middle" dominant-baseline="middle" font-family="Arial, Helvetica, sans-serif" font-size="0.68mm" fill="#C8C8C8">.4</text>
    <path d="M 11.03,22.00 A 2.72,2.72 0 0 1 16.46,22.00 Z" fill="#39FF14" stroke="#000000" stroke-width="0.25"/>
    <text x="13.74" y="21.13" text-anchor="middle" dominant-baseline="middle" font-family="Arial, Helvetica, sans-serif" font-size="0.68mm" fill="#C8C8C8">.6</text>
    <path d="M 16.51,22.00 A 2.72,2.72 0 0 1 21.95,22.00 Z" fill="#39FF14" stroke="#000000" stroke-width="0.25"/>
    <text x="19.23" y="21.13" text-anchor="middle" dominant-baseline="middle" font-family="Arial, Helvetica, sans-serif" font-size="0.68mm" fill="#C8C8C8">.8</text>
  </g>
  <rect x="0.00" y="0.00" width="22.00" height="22.00" rx="2.00" fill="none" stroke="#222222" stroke-width="0.3"/>
</g>
  <g transform="translate(152,22)"><defs>
    <clipPath id="boxNozzleClip_BOX-20260526163901601329-69AC1D14">
      <rect x="0.00" y="0.00" width="22.00" height="22.00" rx="2.00"/>
    </clipPath>
  </defs>
  <rect x="0.00" y="0.00" width="22.00" height="22.00" rx="2.00" fill="white" stroke="#222222" stroke-width="0.3"/>
  <rect x="0.00" y="0.00" width="22.00" height="22.00" rx="2.00" fill="#FFC72C" stroke="none"/>
  <text x="1.00" y="8.54" font-family="Arial, Helvetica, sans-serif" font-size="2.50mm" dominant-baseline="alphabetic" font-weight="700" fill="#111111" textLength="20.00" lengthAdjust="spacingAndGlyphs" data-type-key="filament.abs">ABS</text>
  <text x="1.00" y="18.03" font-family="Arial, Helvetica, sans-serif" font-size="2.00mm" dominant-baseline="alphabetic" fill="#111111" textLength="20.00" lengthAdjust="spacingAndGlyphs" data-color-key="tangerine_yellow">Tangerine Yellow</text>
  <!-- Box nozzle half-circle indicators (model-driven) -->
  <g clip-path="url(#boxNozzleClip_BOX-20260526163901601329-69AC1D14)">
    <path d="M 0.05,22.00 A 2.72,2.72 0 0 1 5.49,22.00 Z" fill="#FFE000" stroke="#000000" stroke-width="0.25"/>
    <text x="2.77" y="21.13" text-anchor="middle" dominant-baseline="middle" font-family="Arial, Helvetica, sans-serif" font-size="0.68mm" fill="#C8C8C8">.2</text>
    <path d="M 5.54,22.00 A 2.72,2.72 0 0 1 10.98,22.00 Z" fill="#39FF14" stroke="#000000" stroke-width="0.25"/>
    <text x="8.26" y="21.13" text-anchor="middle" dominant-baseline="middle" font-family="Arial, Helvetica, sans-serif" font-size="0.68mm" fill="#C8C8C8">.4</text>
    <path d="M 11.03,22.00 A 2.72,2.72 0 0 1 16.46,22.00 Z" fill="#39FF14" stroke="#000000" stroke-width="0.25"/>
    <text x="13.74" y="21.13" text-anchor="middle" dominant-baseline="middle" font-family="Arial, Helvetica, sans-serif" font-size="0.68mm" fill="#C8C8C8">.6</text>
    <path d="M 16.51,22.00 A 2.72,2.72 0 0 1 21.95,22.00 Z" fill="#39FF14" stroke="#000000" stroke-width="0.25"/>
    <text x="19.23" y="21.13" text-anchor="middle" dominant-baseline="middle" font-family="Arial, Helvetica, sans-serif" font-size="0.68mm" fill="#C8C8C8">.8</text>
  </g>
  <rect x="0.00" y="0.00" width="22.00" height="22.00" rx="2.00" fill="none" stroke="#222222" stroke-width="0.3"/>
</g>
  <g transform="translate(178,22)"><defs>
    <clipPath id="boxNozzleClip_BOX-20260526163901600144-4C0A33A9">
      <rect x="0.00" y="0.00" width="22.00" height="22.00" rx="2.00"/>
    </clipPath>
  </defs>
  <rect x="0.00" y="0.00" width="22.00" height="22.00" rx="2.00" fill="white" stroke="#222222" stroke-width="0.3"/>
  <rect x="0.00" y="0.00" width="22.00" height="22.00" rx="2.00" fill="#00AE42" stroke="none"/>
  <text x="1.00" y="8.54" font-family="Arial, Helvetica, sans-serif" font-size="2.50mm" dominant-baseline="alphabetic" font-weight="700" fill="#FFFFFF" textLength="20.00" lengthAdjust="spacingAndGlyphs" data-type-key="filament.abs">ABS</text>
  <text x="1.00" y="18.03" font-family="Arial, Helvetica, sans-serif" font-size="2.00mm" dominant-baseline="alphabetic" fill="#FFFFFF" textLength="20.00" lengthAdjust="spacingAndGlyphs" data-color-key="bambu_green">Bambu Green</text>
  <!-- Box nozzle half-circle indicators (model-driven) -->
  <g clip-path="url(#boxNozzleClip_BOX-20260526163901600144-4C0A33A9)">
    <path d="M 0.05,22.00 A 2.72,2.72 0 0 1 5.49,22.00 Z" fill="#FFE000" stroke="#000000" stroke-width="0.25"/>
    <text x="2.77" y="21.13" text-anchor="middle" dominant-baseline="middle" font-family="Arial, Helvetica, sans-serif" font-size="0.68mm" fill="#C8C8C8">.2</text>
    <path d="M 5.54,22.00 A 2.72,2.72 0 0 1 10.98,22.00 Z" fill="#39FF14" stroke="#000000" stroke-width="0.25"/>
    <text x="8.26" y="21.13" text-anchor="middle" dominant-baseline="middle" font-family="Arial, Helvetica, sans-serif" font-size="0.68mm" fill="#C8C8C8">.4</text>
    <path d="M 11.03,22.00 A 2.72,2.72 0 0 1 16.46,22.00 Z" fill="#39FF14" stroke="#000000" stroke-width="0.25"/>
    <text x="13.74" y="21.13" text-anchor="middle" dominant-baseline="middle" font-family="Arial, Helvetica, sans-serif" font-size="0.68mm" fill="#C8C8C8">.6</text>
    <path d="M 16.51,22.00 A 2.72,2.72 0 0 1 21.95,22.00 Z" fill="#39FF14" stroke="#000000" stroke-width="0.25"/>
    <text x="19.23" y="21.13" text-anchor="middle" dominant-baseline="middle" font-family="Arial, Helvetica, sans-serif" font-size="0.68mm" fill="#C8C8C8">.8</text>
  </g>
  <rect x="0.00" y="0.00" width="22.00" height="22.00" rx="2.00" fill="none" stroke="#222222" stroke-width="0.3"/>
</g>
  <g transform="translate(204,22)"><defs>
    <clipPath id="boxNozzleClip_BOX-20260526163901600773-0B5E5662">
      <rect x="0.00" y="0.00" width="22.00" height="22.00" rx="2.00"/>
    </clipPath>
  </defs>
  <rect x="0.00" y="0.00" width="22.00" height="22.00" rx="2.00" fill="white" stroke="#222222" stroke-width="0.3"/>
  <rect x="0.00" y="0.00" width="22.00" height="22.00" rx="2.00" fill="#789D4A" stroke="none"/>
  <text x="1.00" y="8.54" font-family="Arial, Helvetica, sans-serif" font-size="2.50mm" dominant-baseline="alphabetic" font-weight="700" fill="#111111" textLength="20.00" lengthAdjust="spacingAndGlyphs" data-type-key="filament.abs">ABS</text>
  <text x="1.00" y="18.03" font-family="Arial, Helvetica, sans-serif" font-size="2.00mm" dominant-baseline="alphabetic" fill="#111111" textLength="20.00" lengthAdjust="spacingAndGlyphs" data-color-key="olive">Olive</text>
  <!-- Box nozzle half-circle indicators (model-driven) -->
  <g clip-path="url(#boxNozzleClip_BOX-20260526163901600773-0B5E5662)">
    <path d="M 0.05,22.00 A 2.72,2.72 0 0 1 5.49,22.00 Z" fill="#FFE000" stroke="#000000" stroke-width="0.25"/>
    <text x="2.77" y="21.13" text-anchor="middle" dominant-baseline="middle" font-family="Arial, Helvetica, sans-serif" font-size="0.68mm" fill="#C8C8C8">.2</text>
    <path d="M 5.54,22.00 A 2.72,2.72 0 0 1 10.98,22.00 Z" fill="#39FF14" stroke="#000000" stroke-width="0.25"/>
    <text x="8.26" y="21.13" text-anchor="middle" dominant-baseline="middle" font-family="Arial, Helvetica, sans-serif" font-size="0.68mm" fill="#C8C8C8">.4</text>
    <path d="M 11.03,22.00 A 2.72,2.72 0 0 1 16.46,22.00 Z" fill="#39FF14" stroke="#000000" stroke-width="0.25"/>
    <text x="13.74" y="21.13" text-anchor="middle" dominant-baseline="middle" font-family="Arial, Helvetica, sans-serif" font-size="0.68mm" fill="#C8C8C8">.6</text>
    <path d="M 16.51,22.00 A 2.72,2.72 0 0 1 21.95,22.00 Z" fill="#39FF14" stroke="#000000" stroke-width="0.25"/>
    <text x="19.23" y="21.13" text-anchor="middle" dominant-baseline="middle" font-family="Arial, Helvetica, sans-serif" font-size="0.68mm" fill="#C8C8C8">.8</text>
  </g>
  <rect x="0.00" y="0.00" width="22.00" height="22.00" rx="2.00" fill="none" stroke="#222222" stroke-width="0.3"/>
</g>
  <g transform="translate(22,48)"><defs>
    <clipPath id="boxNozzleClip_BOX-20260526163901600466-42BD2339">
      <rect x="0.00" y="0.00" width="22.00" height="22.00" rx="2.00"/>
    </clipPath>
  </defs>
  <rect x="0.00" y="0.00" width="22.00" height="22.00" rx="2.00" fill="white" stroke="#222222" stroke-width="0.3"/>
  <rect x="0.00" y="0.00" width="22.00" height="22.00" rx="2.00" fill="#0A2CA5" stroke="none"/>
  <text x="1.00" y="8.54" font-family="Arial, Helvetica, sans-serif" font-size="2.50mm" dominant-baseline="alphabetic" font-weight="700" fill="#FFFFFF" textLength="20.00" lengthAdjust="spacingAndGlyphs" data-type-key="filament.abs">ABS</text>
  <text x="1.00" y="18.03" font-family="Arial, Helvetica, sans-serif" font-size="2.00mm" dominant-baseline="alphabetic" fill="#FFFFFF" textLength="20.00" lengthAdjust="spacingAndGlyphs" data-color-key="blue">Blue</text>
  <!-- Box nozzle half-circle indicators (model-driven) -->
  <g clip-path="url(#boxNozzleClip_BOX-20260526163901600466-42BD2339)">
    <path d="M 0.05,22.00 A 2.72,2.72 0 0 1 5.49,22.00 Z" fill="#FFE000" stroke="#000000" stroke-width="0.25"/>
    <text x="2.77" y="21.13" text-anchor="middle" dominant-baseline="middle" font-family="Arial, Helvetica, sans-serif" font-size="0.68mm" fill="#C8C8C8">.2</text>
    <path d="M 5.54,22.00 A 2.72,2.72 0 0 1 10.98,22.00 Z" fill="#39FF14" stroke="#000000" stroke-width="0.25"/>
    <text x="8.26" y="21.13" text-anchor="middle" dominant-baseline="middle" font-family="Arial, Helvetica, sans-serif" font-size="0.68mm" fill="#C8C8C8">.4</text>
    <path d="M 11.03,22.00 A 2.72,2.72 0 0 1 16.46,22.00 Z" fill="#39FF14" stroke="#000000" stroke-width="0.25"/>
    <text x="13.74" y="21.13" text-anchor="middle" dominant-baseline="middle" font-family="Arial, Helvetica, sans-serif" font-size="0.68mm" fill="#C8C8C8">.6</text>
    <path d="M 16.51,22.00 A 2.72,2.72 0 0 1 21.95,22.00 Z" fill="#39FF14" stroke="#000000" stroke-width="0.25"/>
    <text x="19.23" y="21.13" text-anchor="middle" dominant-baseline="middle" font-family="Arial, Helvetica, sans-serif" font-size="0.68mm" fill="#C8C8C8">.8</text>
  </g>
  <rect x="0.00" y="0.00" width="22.00" height="22.00" rx="2.00" fill="none" stroke="#222222" stroke-width="0.3"/>
</g>
  <g transform="translate(48,48)"><defs>
    <clipPath id="boxNozzleClip_BOX-20260526163901600010-CA32E90C">
      <rect x="0.00" y="0.00" width="22.00" height="22.00" rx="2.00"/>
    </clipPath>
  </defs>
  <rect x="0.00" y="0.00" width="22.00" height="22.00" rx="2.00" fill="white" stroke="#222222" stroke-width="0.3"/>
  <rect x="0.00" y="0.00" width="22.00" height="22.00" rx="2.00" fill="#489FDF" stroke="none"/>
  <text x="1.00" y="8.54" font-family="Arial, Helvetica, sans-serif" font-size="2.50mm" dominant-baseline="alphabetic" font-weight="700" fill="#111111" textLength="20.00" lengthAdjust="spacingAndGlyphs" data-type-key="filament.abs">ABS</text>
  <text x="1.00" y="18.03" font-family="Arial, Helvetica, sans-serif" font-size="2.00mm" dominant-baseline="alphabetic" fill="#111111" textLength="20.00" lengthAdjust="spacingAndGlyphs" data-color-key="azure">Azure</text>
  <!-- Box nozzle half-circle indicators (model-driven) -->
  <g clip-path="url(#boxNozzleClip_BOX-20260526163901600010-CA32E90C)">
    <path d="M 0.05,22.00 A 2.72,2.72 0 0 1 5.49,22.00 Z" fill="#FFE000" stroke="#000000" stroke-width="0.25"/>
    <text x="2.77" y="21.13" text-anchor="middle" dominant-baseline="middle" font-family="Arial, Helvetica, sans-serif" font-size="0.68mm" fill="#C8C8C8">.2</text>
    <path d="M 5.54,22.00 A 2.72,2.72 0 0 1 10.98,22.00 Z" fill="#39FF14" stroke="#000000" stroke-width="0.25"/>
    <text x="8.26" y="21.13" text-anchor="middle" dominant-baseline="middle" font-family="Arial, Helvetica, sans-serif" font-size="0.68mm" fill="#C8C8C8">.4</text>
    <path d="M 11.03,22.00 A 2.72,2.72 0 0 1 16.46,22.00 Z" fill="#39FF14" stroke="#000000" stroke-width="0.25"/>
    <text x="13.74" y="21.13" text-anchor="middle" dominant-baseline="middle" font-family="Arial, Helvetica, sans-serif" font-size="0.68mm" fill="#C8C8C8">.6</text>
    <path d="M 16.51,22.00 A 2.72,2.72 0 0 1 21.95,22.00 Z" fill="#39FF14" stroke="#000000" stroke-width="0.25"/>
    <text x="19.23" y="21.13" text-anchor="middle" dominant-baseline="middle" font-family="Arial, Helvetica, sans-serif" font-size="0.68mm" fill="#C8C8C8">.8</text>
  </g>
  <rect x="0.00" y="0.00" width="22.00" height="22.00" rx="2.00" fill="none" stroke="#222222" stroke-width="0.3"/>
</g>
  <g transform="translate(74,48)"><defs>
    <clipPath id="boxNozzleClip_BOX-20260526163901600613-1EFCD636">
      <rect x="0.00" y="0.00" width="22.00" height="22.00" rx="2.00"/>
    </clipPath>
  </defs>
  <rect x="0.00" y="0.00" width="22.00" height="22.00" rx="2.00" fill="white" stroke="#222222" stroke-width="0.3"/>
  <rect x="0.00" y="0.00" width="22.00" height="22.00" rx="2.00" fill="#0C2340" stroke="none"/>
  <text x="1.00" y="8.54" font-family="Arial, Helvetica, sans-serif" font-size="2.50mm" dominant-baseline="alphabetic" font-weight="700" fill="#FFFFFF" textLength="20.00" lengthAdjust="spacingAndGlyphs" data-type-key="filament.abs">ABS</text>
  <text x="1.00" y="18.03" font-family="Arial, Helvetica, sans-serif" font-size="2.00mm" dominant-baseline="alphabetic" fill="#FFFFFF" textLength="20.00" lengthAdjust="spacingAndGlyphs" data-color-key="navy_blue">Navy Blue</text>
  <!-- Box nozzle half-circle indicators (model-driven) -->
  <g clip-path="url(#boxNozzleClip_BOX-20260526163901600613-1EFCD636)">
    <path d="M 0.05,22.00 A 2.72,2.72 0 0 1 5.49,22.00 Z" fill="#FFE000" stroke="#000000" stroke-width="0.25"/>
    <text x="2.77" y="21.13" text-anchor="middle" dominant-baseline="middle" font-family="Arial, Helvetica, sans-serif" font-size="0.68mm" fill="#C8C8C8">.2</text>
    <path d="M 5.54,22.00 A 2.72,2.72 0 0 1 10.98,22.00 Z" fill="#39FF14" stroke="#000000" stroke-width="0.25"/>
    <text x="8.26" y="21.13" text-anchor="middle" dominant-baseline="middle" font-family="Arial, Helvetica, sans-serif" font-size="0.68mm" fill="#C8C8C8">.4</text>
    <path d="M 11.03,22.00 A 2.72,2.72 0 0 1 16.46,22.00 Z" fill="#39FF14" stroke="#000000" stroke-width="0.25"/>
    <text x="13.74" y="21.13" text-anchor="middle" dominant-baseline="middle" font-family="Arial, Helvetica, sans-serif" font-size="0.68mm" fill="#C8C8C8">.6</text>
    <path d="M 16.51,22.00 A 2.72,2.72 0 0 1 21.95,22.00 Z" fill="#39FF14" stroke="#000000" stroke-width="0.25"/>
    <text x="19.23" y="21.13" text-anchor="middle" dominant-baseline="middle" font-family="Arial, Helvetica, sans-serif" font-size="0.68mm" fill="#C8C8C8">.8</text>
  </g>
  <rect x="0.00" y="0.00" width="22.00" height="22.00" rx="2.00" fill="none" stroke="#222222" stroke-width="0.3"/>
</g>
  <line x1="15.00" y1="12.00" x2="15.00" y2="18.00" stroke="black" stroke-width="0.3" class="alignment-mark"/>
  <line x1="12.00" y1="15.00" x2="18.00" y2="15.00" stroke="black" stroke-width="0.3" class="alignment-mark"/>
  <line x1="264.40" y1="12.00" x2="264.40" y2="18.00" stroke="black" stroke-width="0.3" class="alignment-mark"/>
  <line x1="261.40" y1="15.00" x2="267.40" y2="15.00" stroke="black" stroke-width="0.3" class="alignment-mark"/>
  <line x1="15.00" y1="197.90" x2="15.00" y2="203.90" stroke="black" stroke-width="0.3" class="alignment-mark"/>
  <line x1="12.00" y1="200.90" x2="18.00" y2="200.90" stroke="black" stroke-width="0.3" class="alignment-mark"/>
  <line x1="264.40" y1="197.90" x2="264.40" y2="203.90" stroke="black" stroke-width="0.3" class="alignment-mark"/>
  <line x1="261.40" y1="200.90" x2="267.40" y2="200.90" stroke="black" stroke-width="0.3" class="alignment-mark"/>
</svg>
