<?xml version="1.0" encoding="UTF-8"?>
<svg xmlns="http://www.w3.org/2000/svg" width="279.4mm" height="215.9mm" viewBox="0 0 279.4 215.9">
  <title>cut_sheet_page_002 — 279.4mm x 215.9mm — print at 100%</title><g id="sheet-cell-002-1" data-object-id="box_materials__yg019" data-filename="box_materials__yg019.svg">
    <rect x="22.00" y="22.00" width="70.00" height="35.00" rx="2.00" ry="2.00" fill="none" stroke="#ff0000" stroke-opacity="0.55" stroke-width="0.2" class="label-outline"/>
    <line x1="21.50" y1="21.50" x2="23.50" y2="21.50" stroke="black" stroke-width="0.2"/>
    <line x1="21.50" y1="21.50" x2="21.50" y2="23.50" stroke="black" stroke-width="0.2"/>
    <line x1="90.50" y1="21.50" x2="92.50" y2="21.50" stroke="black" stroke-width="0.2"/>
    <line x1="92.50" y1="21.50" x2="92.50" y2="23.50" stroke="black" stroke-width="0.2"/>
    <line x1="21.50" y1="57.50" x2="23.50" y2="57.50" stroke="black" stroke-width="0.2"/>
    <line x1="21.50" y1="55.50" x2="21.50" y2="57.50" stroke="black" stroke-width="0.2"/>
    <line x1="90.50" y1="57.50" x2="92.50" y2="57.50" stroke="black" stroke-width="0.2"/>
    <line x1="92.50" y1="55.50" x2="92.50" y2="57.50" stroke="black" stroke-width="0.2"/>
  </g>
  <line x1="15.00" y1="12.00" x2="15.00" y2="18.00" stroke="black" stroke-width="0.3" class="alignment-mark"/>
  <line x1="12.00" y1="15.00" x2="18.00" y2="15.00" stroke="black" stroke-width="0.3" class="alignment-mark"/>
  <line x1="264.40" y1="12.00" x2="264.40" y2="18.00" stroke="black" stroke-width="0.3" class="alignment-mark"/>
  <line x1="261.40" y1="15.00" x2="267.40" y2="15.00" stroke="black" stroke-width="0.3" class="alignment-mark"/>
  <line x1="15.00" y1="197.90" x2="15.00" y2="203.90" stroke="black" stroke-width="0.3" class="alignment-mark"/>
  <line x1="12.00" y1="200.90" x2="18.00" y2="200.90" stroke="black" stroke-width="0.3" class="alignment-mark"/>
  <line x1="264.40" y1="197.90" x2="264.40" y2="203.90" stroke="black" stroke-width="0.3" class="alignment-mark"/>
  <line x1="261.40" y1="200.90" x2="267.40" y2="200.90" stroke="black" stroke-width="0.3" class="alignment-mark"/>
</svg>
