<?xml version="1.0" encoding="UTF-8"?>
<svg xmlns="http://www.w3.org/2000/svg" width="279.4mm" height="215.9mm" viewBox="0 0 279.4 215.9">
  <title>box_tpu_90 — 279.4mm x 215.9mm — print at 100%</title>
  <rect x="0" y="0" width="100%" height="100%" fill="white"/>
  <g transform="translate(22,22)"><defs>
    <clipPath id="boxNozzleClip_BOX-20260526163901649834-C60C7768">
      <rect x="0.00" y="0.00" width="22.00" height="22.00" rx="2.00"/>
    </clipPath>
  </defs>
  <rect x="0.00" y="0.00" width="22.00" height="22.00" rx="2.00" fill="white" stroke="#222222" stroke-width="0.3"/>
  <rect x="0.00" y="0.00" width="22.00" height="22.00" rx="2.00" fill="#000000" stroke="none"/>
  <text x="1.00" y="8.54" font-family="Arial, Helvetica, sans-serif" font-size="2.50mm" dominant-baseline="alphabetic" font-weight="700" fill="#FFFFFF" textLength="20.00" lengthAdjust="spacingAndGlyphs" data-type-key="filament.tpu_90">TPU 90A</text>
  <text x="1.00" y="18.03" font-family="Arial, Helvetica, sans-serif" font-size="2.00mm" dominant-baseline="alphabetic" fill="#FFFFFF" textLength="20.00" lengthAdjust="spacingAndGlyphs" data-color-key="black">Morn</text>
  <!-- Box nozzle half-circle indicators (model-driven) -->
  <g clip-path="url(#boxNozzleClip_BOX-20260526163901649834-C60C7768)">
    <path d="M 0.05,22.00 A 2.72,2.72 0 0 1 5.49,22.00 Z" fill="#FF9800" stroke="#000000" stroke-width="0.25"/>
    <text x="2.77" y="21.13" text-anchor="middle" dominant-baseline="middle" font-family="Arial, Helvetica, sans-serif" font-size="0.68mm" fill="#000000">.2</text>
    <path d="M 5.54,22.00 A 2.72,2.72 0 0 1 10.98,22.00 Z" fill="#39FF14" stroke="#000000" stroke-width="0.25"/>
    <text x="8.26" y="21.13" text-anchor="middle" dominant-baseline="middle" font-family="Arial, Helvetica, sans-serif" font-size="0.68mm" fill="#C8C8C8">.4</text>
    <path d="M 11.03,22.00 A 2.72,2.72 0 0 1 16.46,22.00 Z" fill="#39FF14" stroke="#000000" stroke-width="0.25"/>
    <text x="13.74" y="21.13" text-anchor="middle" dominant-baseline="middle" font-family="Arial, Helvetica, sans-serif" font-size="0.68mm" fill="#C8C8C8">.6</text>
    <path d="M 16.51,22.00 A 2.72,2.72 0 0 1 21.95,22.00 Z" fill="#39FF14" stroke="#000000" stroke-width="0.25"/>
    <text x="19.23" y="21.13" text-anchor="middle" dominant-baseline="middle" font-family="Arial, Helvetica, sans-serif" font-size="0.68mm" fill="#C8C8C8">.8</text>
  </g>
  <rect x="0.00" y="0.00" width="22.00" height="22.00" rx="2.00" fill="none" stroke="#222222" stroke-width="0.3"/>
</g>
  <g transform="translate(48,22)"><defs>
    <clipPath id="boxNozzleClip_BOX-20260526163901651725-E5F3B2B5">
      <rect x="0.00" y="0.00" width="22.00" height="22.00" rx="2.00"/>
    </clipPath>
  </defs>
  <rect x="0.00" y="0.00" width="22.00" height="22.00" rx="2.00" fill="white" stroke="#222222" stroke-width="0.3"/>
  <rect x="0.00" y="0.00" width="22.00" height="22.00" rx="2.00" fill="#FFFFEE" stroke="none"/>
  <text x="1.00" y="8.54" font-family="Arial, Helvetica, sans-serif" font-size="2.50mm" dominant-baseline="alphabetic" font-weight="700" fill="#111111" textLength="20.00" lengthAdjust="spacingAndGlyphs" data-type-key="filament.tpu_90">TPU 90A</text>
  <text x="1.00" y="18.03" font-family="Arial, Helvetica, sans-serif" font-size="2.00mm" dominant-baseline="alphabetic" fill="#111111" textLength="20.00" lengthAdjust="spacingAndGlyphs" data-color-key="white">Nim</text>
  <!-- Box nozzle half-circle indicators (model-driven) -->
  <g clip-path="url(#boxNozzleClip_BOX-20260526163901651725-E5F3B2B5)">
    <path d="M 0.05,22.00 A 2.72,2.72 0 0 1 5.49,22.00 Z" fill="#FF9800" stroke="#000000" stroke-width="0.25"/>
    <text x="2.77" y="21.13" text-anchor="middle" dominant-baseline="middle" font-family="Arial, Helvetica, sans-serif" font-size="0.68mm" fill="#000000">.2</text>
    <path d="M 5.54,22.00 A 2.72,2.72 0 0 1 10.98,22.00 Z" fill="#39FF14" stroke="#000000" stroke-width="0.25"/>
    <text x="8.26" y="21.13" text-anchor="middle" dominant-baseline="middle" font-family="Arial, Helvetica, sans-serif" font-size="0.68mm" fill="#C8C8C8">.4</text>
    <path d="M 11.03,22.00 A 2.72,2.72 0 0 1 16.46,22.00 Z" fill="#39FF14" stroke="#000000" stroke-width="0.25"/>
    <text x="13.74" y="21.13" text-anchor="middle" dominant-baseline="middle" font-family="Arial, Helvetica, sans-serif" font-size="0.68mm" fill="#C8C8C8">.6</text>
    <path d="M 16.51,22.00 A 2.72,2.72 0 0 1 21.95,22.00 Z" fill="#39FF14" stroke="#000000" stroke-width="0.25"/>
    <text x="19.23" y="21.13" text-anchor="middle" dominant-baseline="middle" font-family="Arial, Helvetica, sans-serif" font-size="0.68mm" fill="#C8C8C8">.8</text>
  </g>
  <rect x="0.00" y="0.00" width="22.00" height="22.00" rx="2.00" fill="none" stroke="#222222" stroke-width="0.3"/>
</g>
  <g transform="translate(74,22)"><defs>
    <clipPath id="boxNozzleClip_BOX-20260526163901651450-7AF61ED2">
      <rect x="0.00" y="0.00" width="22.00" height="22.00" rx="2.00"/>
    </clipPath>
  </defs>
  <rect x="0.00" y="0.00" width="22.00" height="22.00" rx="2.00" fill="white" stroke="#222222" stroke-width="0.3"/>
  <rect x="0.00" y="0.00" width="22.00" height="22.00" rx="2.00" fill="#9EA2A2" stroke="none"/>
  <text x="1.00" y="8.54" font-family="Arial, Helvetica, sans-serif" font-size="2.50mm" dominant-baseline="alphabetic" font-weight="700" fill="#111111" textLength="20.00" lengthAdjust="spacingAndGlyphs" data-type-key="filament.tpu_90">TPU 90A</text>
  <text x="1.00" y="18.03" font-family="Arial, Helvetica, sans-serif" font-size="2.00mm" dominant-baseline="alphabetic" fill="#111111" textLength="20.00" lengthAdjust="spacingAndGlyphs" data-color-key="quicksilver">Cwicksilverë</text>
  <!-- Box nozzle half-circle indicators (model-driven) -->
  <g clip-path="url(#boxNozzleClip_BOX-20260526163901651450-7AF61ED2)">
    <path d="M 0.05,22.00 A 2.72,2.72 0 0 1 5.49,22.00 Z" fill="#FF9800" stroke="#000000" stroke-width="0.25"/>
    <text x="2.77" y="21.13" text-anchor="middle" dominant-baseline="middle" font-family="Arial, Helvetica, sans-serif" font-size="0.68mm" fill="#000000">.2</text>
    <path d="M 5.54,22.00 A 2.72,2.72 0 0 1 10.98,22.00 Z" fill="#39FF14" stroke="#000000" stroke-width="0.25"/>
    <text x="8.26" y="21.13" text-anchor="middle" dominant-baseline="middle" font-family="Arial, Helvetica, sans-serif" font-size="0.68mm" fill="#C8C8C8">.4</text>
    <path d="M 11.03,22.00 A 2.72,2.72 0 0 1 16.46,22.00 Z" fill="#39FF14" stroke="#000000" stroke-width="0.25"/>
    <text x="13.74" y="21.13" text-anchor="middle" dominant-baseline="middle" font-family="Arial, Helvetica, sans-serif" font-size="0.68mm" fill="#C8C8C8">.6</text>
    <path d="M 16.51,22.00 A 2.72,2.72 0 0 1 21.95,22.00 Z" fill="#39FF14" stroke="#000000" stroke-width="0.25"/>
    <text x="19.23" y="21.13" text-anchor="middle" dominant-baseline="middle" font-family="Arial, Helvetica, sans-serif" font-size="0.68mm" fill="#C8C8C8">.8</text>
  </g>
  <rect x="0.00" y="0.00" width="22.00" height="22.00" rx="2.00" fill="none" stroke="#222222" stroke-width="0.3"/>
</g>
  <g transform="translate(100,22)"><defs>
    <clipPath id="boxNozzleClip_BOX-20260526163901650636-E70C0F86">
      <rect x="0.00" y="0.00" width="22.00" height="22.00" rx="2.00"/>
    </clipPath>
  </defs>
  <rect x="0.00" y="0.00" width="22.00" height="22.00" rx="2.00" fill="white" stroke="#222222" stroke-width="0.3"/>
  <rect x="0.00" y="0.00" width="22.00" height="22.00" rx="2.00" fill="#7EB4E1" stroke="none"/>
  <text x="1.00" y="8.54" font-family="Arial, Helvetica, sans-serif" font-size="2.50mm" dominant-baseline="alphabetic" font-weight="700" fill="#111111" textLength="20.00" lengthAdjust="spacingAndGlyphs" data-type-key="filament.tpu_90">TPU 90A</text>
  <text x="1.00" y="18.03" font-family="Arial, Helvetica, sans-serif" font-size="2.00mm" dominant-baseline="alphabetic" fill="#111111" textLength="20.00" lengthAdjust="spacingAndGlyphs" data-color-key="cystal_blue">Cistalë Luine</text>
  <!-- Box nozzle half-circle indicators (model-driven) -->
  <g clip-path="url(#boxNozzleClip_BOX-20260526163901650636-E70C0F86)">
    <path d="M 0.05,22.00 A 2.72,2.72 0 0 1 5.49,22.00 Z" fill="#FF9800" stroke="#000000" stroke-width="0.25"/>
    <text x="2.77" y="21.13" text-anchor="middle" dominant-baseline="middle" font-family="Arial, Helvetica, sans-serif" font-size="0.68mm" fill="#000000">.2</text>
    <path d="M 5.54,22.00 A 2.72,2.72 0 0 1 10.98,22.00 Z" fill="#39FF14" stroke="#000000" stroke-width="0.25"/>
    <text x="8.26" y="21.13" text-anchor="middle" dominant-baseline="middle" font-family="Arial, Helvetica, sans-serif" font-size="0.68mm" fill="#C8C8C8">.4</text>
    <path d="M 11.03,22.00 A 2.72,2.72 0 0 1 16.46,22.00 Z" fill="#39FF14" stroke="#000000" stroke-width="0.25"/>
    <text x="13.74" y="21.13" text-anchor="middle" dominant-baseline="middle" font-family="Arial, Helvetica, sans-serif" font-size="0.68mm" fill="#C8C8C8">.6</text>
    <path d="M 16.51,22.00 A 2.72,2.72 0 0 1 21.95,22.00 Z" fill="#39FF14" stroke="#000000" stroke-width="0.25"/>
    <text x="19.23" y="21.13" text-anchor="middle" dominant-baseline="middle" font-family="Arial, Helvetica, sans-serif" font-size="0.68mm" fill="#C8C8C8">.8</text>
  </g>
  <rect x="0.00" y="0.00" width="22.00" height="22.00" rx="2.00" fill="none" stroke="#222222" stroke-width="0.3"/>
</g>
  <g transform="translate(126,22)"><defs>
    <clipPath id="boxNozzleClip_BOX-20260526163901651181-219BB6FF">
      <rect x="0.00" y="0.00" width="22.00" height="22.00" rx="2.00"/>
    </clipPath>
  </defs>
  <rect x="0.00" y="0.00" width="22.00" height="22.00" rx="2.00" fill="white" stroke="#222222" stroke-width="0.3"/>
  <rect x="0.00" y="0.00" width="22.00" height="22.00" rx="2.00" fill="#D6ABFF" stroke="none"/>
  <text x="1.00" y="8.54" font-family="Arial, Helvetica, sans-serif" font-size="2.50mm" dominant-baseline="alphabetic" font-weight="700" fill="#111111" textLength="20.00" lengthAdjust="spacingAndGlyphs" data-type-key="filament.tpu_90">TPU 90A</text>
  <text x="1.00" y="18.03" font-family="Arial, Helvetica, sans-serif" font-size="2.00mm" dominant-baseline="alphabetic" fill="#111111" textLength="20.00" lengthAdjust="spacingAndGlyphs" data-color-key="grape_jelly">Grapeë Jellië</text>
  <!-- Box nozzle half-circle indicators (model-driven) -->
  <g clip-path="url(#boxNozzleClip_BOX-20260526163901651181-219BB6FF)">
    <path d="M 0.05,22.00 A 2.72,2.72 0 0 1 5.49,22.00 Z" fill="#FF9800" stroke="#000000" stroke-width="0.25"/>
    <text x="2.77" y="21.13" text-anchor="middle" dominant-baseline="middle" font-family="Arial, Helvetica, sans-serif" font-size="0.68mm" fill="#000000">.2</text>
    <path d="M 5.54,22.00 A 2.72,2.72 0 0 1 10.98,22.00 Z" fill="#39FF14" stroke="#000000" stroke-width="0.25"/>
    <text x="8.26" y="21.13" text-anchor="middle" dominant-baseline="middle" font-family="Arial, Helvetica, sans-serif" font-size="0.68mm" fill="#C8C8C8">.4</text>
    <path d="M 11.03,22.00 A 2.72,2.72 0 0 1 16.46,22.00 Z" fill="#39FF14" stroke="#000000" stroke-width="0.25"/>
    <text x="13.74" y="21.13" text-anchor="middle" dominant-baseline="middle" font-family="Arial, Helvetica, sans-serif" font-size="0.68mm" fill="#C8C8C8">.6</text>
    <path d="M 16.51,22.00 A 2.72,2.72 0 0 1 21.95,22.00 Z" fill="#39FF14" stroke="#000000" stroke-width="0.25"/>
    <text x="19.23" y="21.13" text-anchor="middle" dominant-baseline="middle" font-family="Arial, Helvetica, sans-serif" font-size="0.68mm" fill="#C8C8C8">.8</text>
  </g>
  <rect x="0.00" y="0.00" width="22.00" height="22.00" rx="2.00" fill="none" stroke="#222222" stroke-width="0.3"/>
</g>
  <g transform="translate(152,22)"><defs>
    <clipPath id="boxNozzleClip_BOX-20260526163901650384-0A7F0881">
      <rect x="0.00" y="0.00" width="22.00" height="22.00" rx="2.00"/>
    </clipPath>
  </defs>
  <rect x="0.00" y="0.00" width="22.00" height="22.00" rx="2.00" fill="white" stroke="#222222" stroke-width="0.3"/>
  <rect x="0.00" y="0.00" width="22.00" height="22.00" rx="2.00" fill="#5C4738" stroke="none"/>
  <text x="1.00" y="8.54" font-family="Arial, Helvetica, sans-serif" font-size="2.50mm" dominant-baseline="alphabetic" font-weight="700" fill="#FFFFFF" textLength="20.00" lengthAdjust="spacingAndGlyphs" data-type-key="filament.tpu_90">TPU 90A</text>
  <text x="1.00" y="18.03" font-family="Arial, Helvetica, sans-serif" font-size="2.00mm" dominant-baseline="alphabetic" fill="#FFFFFF" textLength="20.00" lengthAdjust="spacingAndGlyphs" data-color-key="cocoa_brown">Cocoaë Baran</text>
  <!-- Box nozzle half-circle indicators (model-driven) -->
  <g clip-path="url(#boxNozzleClip_BOX-20260526163901650384-0A7F0881)">
    <path d="M 0.05,22.00 A 2.72,2.72 0 0 1 5.49,22.00 Z" fill="#FF9800" stroke="#000000" stroke-width="0.25"/>
    <text x="2.77" y="21.13" text-anchor="middle" dominant-baseline="middle" font-family="Arial, Helvetica, sans-serif" font-size="0.68mm" fill="#000000">.2</text>
    <path d="M 5.54,22.00 A 2.72,2.72 0 0 1 10.98,22.00 Z" fill="#39FF14" stroke="#000000" stroke-width="0.25"/>
    <text x="8.26" y="21.13" text-anchor="middle" dominant-baseline="middle" font-family="Arial, Helvetica, sans-serif" font-size="0.68mm" fill="#C8C8C8">.4</text>
    <path d="M 11.03,22.00 A 2.72,2.72 0 0 1 16.46,22.00 Z" fill="#39FF14" stroke="#000000" stroke-width="0.25"/>
    <text x="13.74" y="21.13" text-anchor="middle" dominant-baseline="middle" font-family="Arial, Helvetica, sans-serif" font-size="0.68mm" fill="#C8C8C8">.6</text>
    <path d="M 16.51,22.00 A 2.72,2.72 0 0 1 21.95,22.00 Z" fill="#39FF14" stroke="#000000" stroke-width="0.25"/>
    <text x="19.23" y="21.13" text-anchor="middle" dominant-baseline="middle" font-family="Arial, Helvetica, sans-serif" font-size="0.68mm" fill="#C8C8C8">.8</text>
  </g>
  <rect x="0.00" y="0.00" width="22.00" height="22.00" rx="2.00" fill="none" stroke="#222222" stroke-width="0.3"/>
</g>
  <g transform="translate(178,22)"><defs>
    <linearGradient id="boxSwatchGradient_BOX-20260526163901650887-8E35AC22_FFFFFF_40B6E4" x1="0%" y1="0%" x2="100%" y2="0%">
      <stop offset="0.00%" stop-color="#FFFFFF"/>
      <stop offset="50.00%" stop-color="#A0DAF2"/>
      <stop offset="100.00%" stop-color="#40B6E4"/>
    </linearGradient>
    <pattern id="boxCheckerDark_BOX-20260526163901650887-8E35AC22" width="2.5" height="2.5" patternUnits="userSpaceOnUse" patternTransform="rotate(-45)">
      <rect x="0" y="0" width="1" height="2.5" fill="#B3B3B3"/>
    </pattern>
    <pattern id="boxCheckerLight_BOX-20260526163901650887-8E35AC22" width="2.5" height="2.5" patternUnits="userSpaceOnUse" patternTransform="rotate(45)">
      <rect x="0" y="0" width="1" height="2.5" fill="#B3B3B3"/>
    </pattern>
    <clipPath id="boxNozzleClip_BOX-20260526163901650887-8E35AC22">
      <rect x="0.00" y="0.00" width="22.00" height="22.00" rx="2.00"/>
    </clipPath>
  </defs>
  <rect x="0.00" y="0.00" width="22.00" height="22.00" rx="2.00" fill="white" stroke="#222222" stroke-width="0.3"/>
  <rect x="0.00" y="0.00" width="22.00" height="22.00" rx="2.00" fill="#FFFFFF" stroke="none"/>
  <rect x="0.00" y="0.00" width="22.00" height="22.00" rx="2.00" fill="url(#boxCheckerDark_BOX-20260526163901650887-8E35AC22)" stroke="none"/>
  <rect x="0.00" y="0.00" width="22.00" height="22.00" rx="2.00" fill="url(#boxCheckerLight_BOX-20260526163901650887-8E35AC22)" stroke="none"/>
  <rect x="0.00" y="0.00" width="22.00" height="22.00" rx="2.00" fill="url(#boxSwatchGradient_BOX-20260526163901650887-8E35AC22_FFFFFF_40B6E4)" fill-opacity="0.60" stroke="none"/>
  <text x="1.00" y="8.54" font-family="Arial, Helvetica, sans-serif" font-size="2.50mm" dominant-baseline="alphabetic" font-weight="700" fill="#111111" textLength="20.00" lengthAdjust="spacingAndGlyphs" data-type-key="filament.tpu_90">TPU 90A</text>
  <text x="1.00" y="18.03" font-family="Arial, Helvetica, sans-serif" font-size="2.00mm" dominant-baseline="alphabetic" fill="#111111" textLength="20.00" lengthAdjust="spacingAndGlyphs" data-color-key="frozen">Frozenë</text>
  <!-- Box nozzle half-circle indicators (model-driven) -->
  <g clip-path="url(#boxNozzleClip_BOX-20260526163901650887-8E35AC22)">
    <path d="M 0.05,22.00 A 2.72,2.72 0 0 1 5.49,22.00 Z" fill="#FF9800" stroke="#000000" stroke-width="0.25"/>
    <text x="2.77" y="21.13" text-anchor="middle" dominant-baseline="middle" font-family="Arial, Helvetica, sans-serif" font-size="0.68mm" fill="#000000">.2</text>
    <path d="M 5.54,22.00 A 2.72,2.72 0 0 1 10.98,22.00 Z" fill="#39FF14" stroke="#000000" stroke-width="0.25"/>
    <text x="8.26" y="21.13" text-anchor="middle" dominant-baseline="middle" font-family="Arial, Helvetica, sans-serif" font-size="0.68mm" fill="#C8C8C8">.4</text>
    <path d="M 11.03,22.00 A 2.72,2.72 0 0 1 16.46,22.00 Z" fill="#39FF14" stroke="#000000" stroke-width="0.25"/>
    <text x="13.74" y="21.13" text-anchor="middle" dominant-baseline="middle" font-family="Arial, Helvetica, sans-serif" font-size="0.68mm" fill="#C8C8C8">.6</text>
    <path d="M 16.51,22.00 A 2.72,2.72 0 0 1 21.95,22.00 Z" fill="#39FF14" stroke="#000000" stroke-width="0.25"/>
    <text x="19.23" y="21.13" text-anchor="middle" dominant-baseline="middle" font-family="Arial, Helvetica, sans-serif" font-size="0.68mm" fill="#C8C8C8">.8</text>
  </g>
  <rect x="0.00" y="0.00" width="22.00" height="22.00" rx="2.00" fill="none" stroke="#222222" stroke-width="0.3"/>
</g>
  <g transform="translate(204,22)"><defs>
    <linearGradient id="boxSwatchGradient_BOX-20260526163901650095-F1EF118C_F1AAA8_D21B3C" x1="0%" y1="0%" x2="100%" y2="0%">
      <stop offset="0.00%" stop-color="#F1AAA8"/>
      <stop offset="50.00%" stop-color="#E26272"/>
      <stop offset="100.00%" stop-color="#D21B3C"/>
    </linearGradient>
    <clipPath id="boxNozzleClip_BOX-20260526163901650095-F1EF118C">
      <rect x="0.00" y="0.00" width="22.00" height="22.00" rx="2.00"/>
    </clipPath>
  </defs>
  <rect x="0.00" y="0.00" width="22.00" height="22.00" rx="2.00" fill="white" stroke="#222222" stroke-width="0.3"/>
  <rect x="0.00" y="0.00" width="22.00" height="22.00" rx="2.00" fill="url(#boxSwatchGradient_BOX-20260526163901650095-F1EF118C_F1AAA8_D21B3C)" stroke="none"/>
  <text x="1.00" y="8.54" font-family="Arial, Helvetica, sans-serif" font-size="2.50mm" dominant-baseline="alphabetic" font-weight="700" fill="#111111" textLength="20.00" lengthAdjust="spacingAndGlyphs" data-type-key="filament.tpu_90">TPU 90A</text>
  <text x="1.00" y="18.03" font-family="Arial, Helvetica, sans-serif" font-size="2.00mm" dominant-baseline="alphabetic" fill="#111111" textLength="20.00" lengthAdjust="spacingAndGlyphs" data-color-key="blaze">Blazeë</text>
  <!-- Box nozzle half-circle indicators (model-driven) -->
  <g clip-path="url(#boxNozzleClip_BOX-20260526163901650095-F1EF118C)">
    <path d="M 0.05,22.00 A 2.72,2.72 0 0 1 5.49,22.00 Z" fill="#FF9800" stroke="#000000" stroke-width="0.25"/>
    <text x="2.77" y="21.13" text-anchor="middle" dominant-baseline="middle" font-family="Arial, Helvetica, sans-serif" font-size="0.68mm" fill="#000000">.2</text>
    <path d="M 5.54,22.00 A 2.72,2.72 0 0 1 10.98,22.00 Z" fill="#39FF14" stroke="#000000" stroke-width="0.25"/>
    <text x="8.26" y="21.13" text-anchor="middle" dominant-baseline="middle" font-family="Arial, Helvetica, sans-serif" font-size="0.68mm" fill="#C8C8C8">.4</text>
    <path d="M 11.03,22.00 A 2.72,2.72 0 0 1 16.46,22.00 Z" fill="#39FF14" stroke="#000000" stroke-width="0.25"/>
    <text x="13.74" y="21.13" text-anchor="middle" dominant-baseline="middle" font-family="Arial, Helvetica, sans-serif" font-size="0.68mm" fill="#C8C8C8">.6</text>
    <path d="M 16.51,22.00 A 2.72,2.72 0 0 1 21.95,22.00 Z" fill="#39FF14" stroke="#000000" stroke-width="0.25"/>
    <text x="19.23" y="21.13" text-anchor="middle" dominant-baseline="middle" font-family="Arial, Helvetica, sans-serif" font-size="0.68mm" fill="#C8C8C8">.8</text>
  </g>
  <rect x="0.00" y="0.00" width="22.00" height="22.00" rx="2.00" fill="none" stroke="#222222" stroke-width="0.3"/>
</g>
  <line x1="15.00" y1="12.00" x2="15.00" y2="18.00" stroke="black" stroke-width="0.3" class="alignment-mark"/>
  <line x1="12.00" y1="15.00" x2="18.00" y2="15.00" stroke="black" stroke-width="0.3" class="alignment-mark"/>
  <line x1="264.40" y1="12.00" x2="264.40" y2="18.00" stroke="black" stroke-width="0.3" class="alignment-mark"/>
  <line x1="261.40" y1="15.00" x2="267.40" y2="15.00" stroke="black" stroke-width="0.3" class="alignment-mark"/>
  <line x1="15.00" y1="197.90" x2="15.00" y2="203.90" stroke="black" stroke-width="0.3" class="alignment-mark"/>
  <line x1="12.00" y1="200.90" x2="18.00" y2="200.90" stroke="black" stroke-width="0.3" class="alignment-mark"/>
  <line x1="264.40" y1="197.90" x2="264.40" y2="203.90" stroke="black" stroke-width="0.3" class="alignment-mark"/>
  <line x1="261.40" y1="200.90" x2="267.40" y2="200.90" stroke="black" stroke-width="0.3" class="alignment-mark"/>
</svg>
