<?xml version="1.0" encoding="UTF-8"?>
<svg xmlns="http://www.w3.org/2000/svg" width="300mm" height="285mm" viewBox="0 0 300 285">
  <title>cut_sheet — 300mm x 285mm — print at 100%</title><g id="sheet-cell-001-1" data-object-id="envelope_materials__ye001" data-filename="envelope_materials__ye001.svg">
    <rect x="22.00" y="22.00" width="70.00" height="35.00" rx="2.00" ry="2.00" fill="none" stroke="#ff0000" stroke-opacity="0.55" stroke-width="0.2" class="label-outline"/>
    <line x1="21.50" y1="21.50" x2="23.50" y2="21.50" stroke="black" stroke-width="0.2"/>
    <line x1="21.50" y1="21.50" x2="21.50" y2="23.50" stroke="black" stroke-width="0.2"/>
    <line x1="90.50" y1="21.50" x2="92.50" y2="21.50" stroke="black" stroke-width="0.2"/>
    <line x1="92.50" y1="21.50" x2="92.50" y2="23.50" stroke="black" stroke-width="0.2"/>
    <line x1="21.50" y1="57.50" x2="23.50" y2="57.50" stroke="black" stroke-width="0.2"/>
    <line x1="21.50" y1="55.50" x2="21.50" y2="57.50" stroke="black" stroke-width="0.2"/>
    <line x1="90.50" y1="57.50" x2="92.50" y2="57.50" stroke="black" stroke-width="0.2"/>
    <line x1="92.50" y1="55.50" x2="92.50" y2="57.50" stroke="black" stroke-width="0.2"/>
  </g>
  <g id="sheet-cell-001-2" data-object-id="envelope_materials__ye002" data-filename="envelope_materials__ye002.svg">
    <rect x="96.00" y="22.00" width="70.00" height="35.00" rx="2.00" ry="2.00" fill="none" stroke="#ff0000" stroke-opacity="0.55" stroke-width="0.2" class="label-outline"/>
    <line x1="95.50" y1="21.50" x2="97.50" y2="21.50" stroke="black" stroke-width="0.2"/>
    <line x1="95.50" y1="21.50" x2="95.50" y2="23.50" stroke="black" stroke-width="0.2"/>
    <line x1="164.50" y1="21.50" x2="166.50" y2="21.50" stroke="black" stroke-width="0.2"/>
    <line x1="166.50" y1="21.50" x2="166.50" y2="23.50" stroke="black" stroke-width="0.2"/>
    <line x1="95.50" y1="57.50" x2="97.50" y2="57.50" stroke="black" stroke-width="0.2"/>
    <line x1="95.50" y1="55.50" x2="95.50" y2="57.50" stroke="black" stroke-width="0.2"/>
    <line x1="164.50" y1="57.50" x2="166.50" y2="57.50" stroke="black" stroke-width="0.2"/>
    <line x1="166.50" y1="55.50" x2="166.50" y2="57.50" stroke="black" stroke-width="0.2"/>
  </g>
  <g id="sheet-cell-001-3" data-object-id="envelope_materials__b-yd001" data-filename="envelope_materials__b-yd001.svg">
    <rect x="170.00" y="22.00" width="70.00" height="35.00" rx="2.00" ry="2.00" fill="none" stroke="#ff0000" stroke-opacity="0.55" stroke-width="0.2" class="label-outline"/>
    <line x1="169.50" y1="21.50" x2="171.50" y2="21.50" stroke="black" stroke-width="0.2"/>
    <line x1="169.50" y1="21.50" x2="169.50" y2="23.50" stroke="black" stroke-width="0.2"/>
    <line x1="238.50" y1="21.50" x2="240.50" y2="21.50" stroke="black" stroke-width="0.2"/>
    <line x1="240.50" y1="21.50" x2="240.50" y2="23.50" stroke="black" stroke-width="0.2"/>
    <line x1="169.50" y1="57.50" x2="171.50" y2="57.50" stroke="black" stroke-width="0.2"/>
    <line x1="169.50" y1="55.50" x2="169.50" y2="57.50" stroke="black" stroke-width="0.2"/>
    <line x1="238.50" y1="57.50" x2="240.50" y2="57.50" stroke="black" stroke-width="0.2"/>
    <line x1="240.50" y1="55.50" x2="240.50" y2="57.50" stroke="black" stroke-width="0.2"/>
  </g>
  <g id="sheet-cell-001-4" data-object-id="envelope_materials__yd003" data-filename="envelope_materials__yd003.svg">
    <rect x="22.00" y="61.00" width="70.00" height="35.00" rx="2.00" ry="2.00" fill="none" stroke="#ff0000" stroke-opacity="0.55" stroke-width="0.2" class="label-outline"/>
    <line x1="21.50" y1="60.50" x2="23.50" y2="60.50" stroke="black" stroke-width="0.2"/>
    <line x1="21.50" y1="60.50" x2="21.50" y2="62.50" stroke="black" stroke-width="0.2"/>
    <line x1="90.50" y1="60.50" x2="92.50" y2="60.50" stroke="black" stroke-width="0.2"/>
    <line x1="92.50" y1="60.50" x2="92.50" y2="62.50" stroke="black" stroke-width="0.2"/>
    <line x1="21.50" y1="96.50" x2="23.50" y2="96.50" stroke="black" stroke-width="0.2"/>
    <line x1="21.50" y1="94.50" x2="21.50" y2="96.50" stroke="black" stroke-width="0.2"/>
    <line x1="90.50" y1="96.50" x2="92.50" y2="96.50" stroke="black" stroke-width="0.2"/>
    <line x1="92.50" y1="94.50" x2="92.50" y2="96.50" stroke="black" stroke-width="0.2"/>
  </g>
  <g id="sheet-cell-001-5" data-object-id="envelope_materials__yd004" data-filename="envelope_materials__yd004.svg">
    <rect x="96.00" y="61.00" width="70.00" height="35.00" rx="2.00" ry="2.00" fill="none" stroke="#ff0000" stroke-opacity="0.55" stroke-width="0.2" class="label-outline"/>
    <line x1="95.50" y1="60.50" x2="97.50" y2="60.50" stroke="black" stroke-width="0.2"/>
    <line x1="95.50" y1="60.50" x2="95.50" y2="62.50" stroke="black" stroke-width="0.2"/>
    <line x1="164.50" y1="60.50" x2="166.50" y2="60.50" stroke="black" stroke-width="0.2"/>
    <line x1="166.50" y1="60.50" x2="166.50" y2="62.50" stroke="black" stroke-width="0.2"/>
    <line x1="95.50" y1="96.50" x2="97.50" y2="96.50" stroke="black" stroke-width="0.2"/>
    <line x1="95.50" y1="94.50" x2="95.50" y2="96.50" stroke="black" stroke-width="0.2"/>
    <line x1="164.50" y1="96.50" x2="166.50" y2="96.50" stroke="black" stroke-width="0.2"/>
    <line x1="166.50" y1="94.50" x2="166.50" y2="96.50" stroke="black" stroke-width="0.2"/>
  </g>
  <g id="sheet-cell-001-6" data-object-id="envelope_materials__ye004" data-filename="envelope_materials__ye004.svg">
    <rect x="170.00" y="61.00" width="70.00" height="35.00" rx="2.00" ry="2.00" fill="none" stroke="#ff0000" stroke-opacity="0.55" stroke-width="0.2" class="label-outline"/>
    <line x1="169.50" y1="60.50" x2="171.50" y2="60.50" stroke="black" stroke-width="0.2"/>
    <line x1="169.50" y1="60.50" x2="169.50" y2="62.50" stroke="black" stroke-width="0.2"/>
    <line x1="238.50" y1="60.50" x2="240.50" y2="60.50" stroke="black" stroke-width="0.2"/>
    <line x1="240.50" y1="60.50" x2="240.50" y2="62.50" stroke="black" stroke-width="0.2"/>
    <line x1="169.50" y1="96.50" x2="171.50" y2="96.50" stroke="black" stroke-width="0.2"/>
    <line x1="169.50" y1="94.50" x2="169.50" y2="96.50" stroke="black" stroke-width="0.2"/>
    <line x1="238.50" y1="96.50" x2="240.50" y2="96.50" stroke="black" stroke-width="0.2"/>
    <line x1="240.50" y1="94.50" x2="240.50" y2="96.50" stroke="black" stroke-width="0.2"/>
  </g>
  <g id="sheet-cell-001-7" data-object-id="envelope_materials__yd002" data-filename="envelope_materials__yd002.svg">
    <rect x="22.00" y="100.00" width="70.00" height="35.00" rx="2.00" ry="2.00" fill="none" stroke="#ff0000" stroke-opacity="0.55" stroke-width="0.2" class="label-outline"/>
    <line x1="21.50" y1="99.50" x2="23.50" y2="99.50" stroke="black" stroke-width="0.2"/>
    <line x1="21.50" y1="99.50" x2="21.50" y2="101.50" stroke="black" stroke-width="0.2"/>
    <line x1="90.50" y1="99.50" x2="92.50" y2="99.50" stroke="black" stroke-width="0.2"/>
    <line x1="92.50" y1="99.50" x2="92.50" y2="101.50" stroke="black" stroke-width="0.2"/>
    <line x1="21.50" y1="135.50" x2="23.50" y2="135.50" stroke="black" stroke-width="0.2"/>
    <line x1="21.50" y1="133.50" x2="21.50" y2="135.50" stroke="black" stroke-width="0.2"/>
    <line x1="90.50" y1="135.50" x2="92.50" y2="135.50" stroke="black" stroke-width="0.2"/>
    <line x1="92.50" y1="133.50" x2="92.50" y2="135.50" stroke="black" stroke-width="0.2"/>
  </g>
  <line x1="12.00" y1="7.00" x2="12.00" y2="17.00" stroke="black" stroke-width="0.3" class="alignment-mark"/><line x1="7.00" y1="12.00" x2="17.00" y2="12.00" stroke="black" stroke-width="0.3" class="alignment-mark"/><line x1="288.00" y1="7.00" x2="288.00" y2="17.00" stroke="black" stroke-width="0.3" class="alignment-mark"/><line x1="283.00" y1="12.00" x2="293.00" y2="12.00" stroke="black" stroke-width="0.3" class="alignment-mark"/><line x1="12.00" y1="268.00" x2="12.00" y2="278.00" stroke="black" stroke-width="0.3" class="alignment-mark"/><line x1="7.00" y1="273.00" x2="17.00" y2="273.00" stroke="black" stroke-width="0.3" class="alignment-mark"/><line x1="288.00" y1="268.00" x2="288.00" y2="278.00" stroke="black" stroke-width="0.3" class="alignment-mark"/><line x1="283.00" y1="273.00" x2="293.00" y2="273.00" stroke="black" stroke-width="0.3" class="alignment-mark"/></svg>
