<?xml version="1.0" encoding="UTF-8"?>
<svg xmlns="http://www.w3.org/2000/svg" width="22mm" height="22mm" viewBox="0.0 0.0 22.0 22.0">
  <title>pla_silk_multi_color__13916 — 22mm x 22mm — print at 100%</title><defs>
    <linearGradient id="boxSwatchGradient_BOX-20260526163901633154-0A0E0B90_00629B_000000" x1="0%" y1="0%" x2="100%" y2="0%">
      <stop offset="0.00%" stop-color="#00629B"/>
      <stop offset="50.00%" stop-color="#00314E"/>
      <stop offset="100.00%" stop-color="#000000"/>
    </linearGradient>
    <clipPath id="boxNozzleClip_BOX-20260526163901633154-0A0E0B90">
      <rect x="0.00" y="0.00" width="22.00" height="22.00" rx="2.00"/>
    </clipPath>
  </defs>
  <rect x="0.00" y="0.00" width="22.00" height="22.00" rx="2.00" fill="white" stroke="#222222" stroke-width="0.3"/>
  <rect x="0.00" y="0.00" width="22.00" height="22.00" rx="2.00" fill="url(#boxSwatchGradient_BOX-20260526163901633154-0A0E0B90_00629B_000000)" stroke="none"/>
  <text x="1.00" y="8.54" font-family="Arial, Helvetica, sans-serif" font-size="2.50mm" dominant-baseline="alphabetic" font-weight="700" fill="#FFFFFF" textLength="20.00" lengthAdjust="spacingAndGlyphs" data-type-key="filament.pla_silk_multi_color">PLA Шелковый многоцветный</text>
  <text x="1.00" y="18.03" font-family="Arial, Helvetica, sans-serif" font-size="2.00mm" dominant-baseline="alphabetic" fill="#FFFFFF" textLength="20.00" lengthAdjust="spacingAndGlyphs" data-color-key="phantom_blue">Фантом Синий</text>
  <!-- Box nozzle half-circle indicators (model-driven) -->
  <g clip-path="url(#boxNozzleClip_BOX-20260526163901633154-0A0E0B90)">
    <path d="M 0.05,22.00 A 2.72,2.72 0 0 1 5.49,22.00 Z" fill="#FFE000" stroke="#000000" stroke-width="0.25"/>
    <text x="2.77" y="21.13" text-anchor="middle" dominant-baseline="middle" font-family="Arial, Helvetica, sans-serif" font-size="0.68mm" fill="#C8C8C8">.2</text>
    <path d="M 5.54,22.00 A 2.72,2.72 0 0 1 10.98,22.00 Z" fill="#39FF14" stroke="#000000" stroke-width="0.25"/>
    <text x="8.26" y="21.13" text-anchor="middle" dominant-baseline="middle" font-family="Arial, Helvetica, sans-serif" font-size="0.68mm" fill="#C8C8C8">.4</text>
    <path d="M 11.03,22.00 A 2.72,2.72 0 0 1 16.46,22.00 Z" fill="#FF3B30" stroke="#000000" stroke-width="0.25"/>
    <text x="13.74" y="21.13" text-anchor="middle" dominant-baseline="middle" font-family="Arial, Helvetica, sans-serif" font-size="0.68mm" fill="#000000">.6</text>
    <path d="M 16.51,22.00 A 2.72,2.72 0 0 1 21.95,22.00 Z" fill="#FF3B30" stroke="#000000" stroke-width="0.25"/>
    <text x="19.23" y="21.13" text-anchor="middle" dominant-baseline="middle" font-family="Arial, Helvetica, sans-serif" font-size="0.68mm" fill="#000000">.8</text>
  </g>
  <rect x="0.00" y="0.00" width="22.00" height="22.00" rx="2.00" fill="none" stroke="#222222" stroke-width="0.3"/>
</svg>
